<svg xmlns="http://www.w3.org/2000/svg" version="1.1" xmlns:xlink="http://www.w3.org/1999/xlink" xmlns:svgjs="http://svgjs.dev/svgjs" width="1500" height="1500" viewBox="0 0 1500 1500"><rect width="1500" height="1500" fill="#000000"></rect><g transform="matrix(0.6666666666666666,0,0,0.6666666666666666,249.39393939393943,683.5569287145929)"><svg viewBox="0 0 396 53" data-background-color="#ffffff" preserveAspectRatio="xMidYMid meet" height="200" width="1500" xmlns="http://www.w3.org/2000/svg" xmlns:xlink="http://www.w3.org/1999/xlink"><g id="tight-bounds" transform="matrix(1,0,0,1,0.2400000000000091,-0.08887916405063834)"><svg viewBox="0 0 395.52 53.177758328101255" height="53.177758328101255" width="395.52"><g><svg viewBox="0 0 500.032234194149 67.22945314076908" height="53.177758328101255" width="395.52"><g><rect width="6.032658174159401" height="67.22945314076908" x="82.68727713475552" y="0" fill="#ffffff" opacity="1" stroke-width="0" stroke="transparent" fill-opacity="1" class="rect-yte-0" data-fill-palette-color="primary" rx="1%" id="yte-0" data-palette-color="#494850"></rect></g><g transform="matrix(1,0,0,1,104.51223419414896,0.1672374456237975)"><svg viewBox="0 0 395.52000000000004 66.89497824952149" height="66.89497824952149" width="395.52000000000004"><g id="textblocktransform"><svg viewBox="0 0 395.52000000000004 66.89497824952149" height="66.89497824952149" width="395.52000000000004" id="textblock"><g><svg viewBox="0 0 395.52000000000004 66.89497824952149" height="66.89497824952149" width="395.52000000000004"><g transform="matrix(1,0,0,1,0,0)"><svg width="395.52000000000004" viewBox="1.25 -37 287.33 48.6" height="66.89497824952149" data-palette-color="#494850"><path d="M14.4 0L9.45 0 1.25-24.8 5.4-26.25 12.1-5.1 18.2-24.15 23.05-24.15 29-5.1 35.65-26.25 39.65-24.8 31.4 0 26.45 0 20.45-19.35 14.4 0ZM49.4 0L44.9 0 44.9-37 49.4-37 49.4-21.85Q50.8-23.9 52.95-25.25 55.1-26.6 58-26.6L58-26.6Q62.4-26.6 64.57-23.95 66.75-21.3 66.75-16.95L66.75-16.95 66.75 0 62.25 0 62.25-16.45Q62.25-19.25 60.95-20.95 59.65-22.65 57.3-22.65L57.3-22.65Q55-22.65 52.92-21.03 50.85-19.4 49.4-17.2L49.4-17.2 49.4 0ZM85.45 0.6L85.45 0.6Q81.75 0.6 78.8-1.13 75.84-2.85 74.17-5.93 72.5-9 72.5-13L72.5-13Q72.5-17.2 74.2-20.25 75.9-23.3 78.84-24.95 81.8-26.6 85.45-26.6L85.45-26.6Q89.09-26.6 92.02-24.95 94.95-23.3 96.67-20.28 98.4-17.25 98.4-13.1L98.4-13.1Q98.4-8.95 96.7-5.88 95-2.8 92.07-1.1 89.15 0.6 85.45 0.6ZM85.45-3.4L85.45-3.4Q89.4-3.4 91.59-6.08 93.8-8.75 93.8-13L93.8-13Q93.8-15.6 92.7-17.78 91.59-19.95 89.72-21.28 87.84-22.6 85.45-22.6L85.45-22.6Q81.5-22.6 79.3-20 77.09-17.4 77.09-13.1L77.09-13.1Q77.09-10.5 78.2-8.28 79.3-6.05 81.17-4.73 83.05-3.4 85.45-3.4ZM111.39 0.6L111.39 0.6Q108.44 0.6 106.07-0.15 103.69-0.9 102.14-2.1L102.14-2.1 104.04-5.85Q105.34-4.75 107.32-4.03 109.29-3.3 111.54-3.3L111.54-3.3Q114.34-3.3 115.77-4.23 117.19-5.15 117.19-6.6L117.19-6.6Q117.19-7.65 116.67-8.45 116.14-9.25 114.74-10.03 113.34-10.8 110.69-11.7L110.69-11.7Q107.04-12.95 105.22-14.68 103.39-16.4 103.39-19.45L103.39-19.45Q103.39-22.45 106.02-24.53 108.64-26.6 113.29-26.6L113.29-26.6Q115.79-26.6 117.74-26.08 119.69-25.55 121.24-24.75L121.24-24.75 119.99-21.05Q118.64-21.85 116.92-22.35 115.19-22.85 113.09-22.85L113.09-22.85Q110.49-22.85 109.14-21.8 107.79-20.75 107.79-19.5L107.79-19.5Q107.79-18.3 108.84-17.45 109.89-16.6 112.94-15.6L112.94-15.6Q117.89-13.95 119.84-11.95 121.79-9.95 121.79-6.95L121.79-6.95Q121.79-3.45 118.97-1.43 116.14 0.6 111.39 0.6ZM138.29 0.6L138.29 0.6Q134.59 0.6 131.82-1.13 129.04-2.85 127.54-5.93 126.04-9 126.04-13L126.04-13Q126.04-16.75 127.57-19.85 129.09-22.95 131.94-24.78 134.79-26.6 138.64-26.6L138.64-26.6Q140.84-26.6 142.52-26.2 144.19-25.8 145.74-25.05L145.74-25.05 144.39-21.25Q142.99-21.95 141.72-22.28 140.44-22.6 138.89-22.6L138.89-22.6Q135.39-22.6 133.02-20.08 130.64-17.55 130.64-13.1L130.64-13.1Q130.64-10.4 131.64-8.2 132.64-6 134.42-4.7 136.19-3.4 138.59-3.4L138.59-3.4Q140.49-3.4 141.84-3.83 143.19-4.25 144.74-5.05L144.74-5.05 146.14-1.25Q144.59-0.4 142.67 0.1 140.74 0.6 138.29 0.6ZM160.84 0.6L160.84 0.6Q157.59 0.6 154.94-1.05 152.29-2.7 150.71-5.73 149.14-8.75 149.14-12.85L149.14-12.85Q149.14-16.75 150.71-19.85 152.29-22.95 155.06-24.78 157.84-26.6 161.44-26.6L161.44-26.6Q163.69-26.6 165.51-25.83 167.34-25.05 168.69-23.9L168.69-23.9 168.69-26 172.79-26 172.79-6.3Q172.79-4.4 173.71-3.83 174.64-3.25 175.74-3.25L175.74-3.25 174.79 0.25Q169.99 0.25 168.99-3.65L168.99-3.65Q167.84-2.05 165.86-0.73 163.89 0.6 160.84 0.6ZM161.84-3.4L161.84-3.4Q163.74-3.4 165.44-4.33 167.14-5.25 168.29-6.65L168.29-6.65 168.29-20.6Q166.94-21.55 165.31-22.13 163.69-22.7 161.89-22.7L161.89-22.7Q159.49-22.7 157.66-21.48 155.84-20.25 154.79-18.07 153.74-15.9 153.74-13L153.74-13Q153.74-10.2 154.79-8.03 155.84-5.85 157.69-4.63 159.54-3.4 161.84-3.4ZM188.74 0.6L188.74 0.6Q185.79 0.6 183.41-0.15 181.04-0.9 179.49-2.1L179.49-2.1 181.39-5.85Q182.69-4.75 184.66-4.03 186.64-3.3 188.89-3.3L188.89-3.3Q191.69-3.3 193.11-4.23 194.54-5.15 194.54-6.6L194.54-6.6Q194.54-7.65 194.01-8.45 193.49-9.25 192.09-10.03 190.69-10.8 188.04-11.7L188.04-11.7Q184.39-12.95 182.56-14.68 180.74-16.4 180.74-19.45L180.74-19.45Q180.74-22.45 183.36-24.53 185.99-26.6 190.64-26.6L190.64-26.6Q193.14-26.6 195.09-26.08 197.04-25.55 198.59-24.75L198.59-24.75 197.34-21.05Q195.99-21.85 194.26-22.35 192.54-22.85 190.44-22.85L190.44-22.85Q187.84-22.85 186.49-21.8 185.14-20.75 185.14-19.5L185.14-19.5Q185.14-18.3 186.19-17.45 187.24-16.6 190.29-15.6L190.29-15.6Q195.24-13.95 197.19-11.95 199.14-9.95 199.14-6.95L199.14-6.95Q199.14-3.45 196.31-1.43 193.49 0.6 188.74 0.6ZM214.23 0.6L214.23 0.6Q210.48 0.6 208.31-1.88 206.13-4.35 206.13-8.95L206.13-8.95 206.13-21.15 201.63-21.15 201.63-25.05 206.23-25.05 207.18-33.25 210.63-33.25 210.63-25.05 217.83-25.05 217.83-21.15 210.63-21.15 210.63-8.6Q210.63-5.7 211.86-4.55 213.08-3.4 214.78-3.4L214.78-3.4Q216.03-3.4 217.16-3.8 218.28-4.2 219.23-4.75L219.23-4.75 220.48-1.15Q219.48-0.55 217.78 0.03 216.08 0.6 214.23 0.6ZM229.48 0L224.98 0 224.98-26 229.48-26 229.48 0ZM227.23-30.45L227.23-30.45Q225.93-30.45 225.01-31.4 224.08-32.35 224.08-33.6L224.08-33.6Q224.08-35.05 224.93-35.9 225.78-36.75 227.23-36.75L227.23-36.75Q228.53-36.75 229.46-35.83 230.38-34.9 230.38-33.6L230.38-33.6Q230.38-32.2 229.53-31.33 228.68-30.45 227.23-30.45ZM241.98 0L237.48 0 237.48-26 241.83-26 241.83-21.65Q243.23-23.75 245.4-25.18 247.58-26.6 250.58-26.6L250.58-26.6Q254.98-26.6 257.15-23.95 259.33-21.3 259.33-16.95L259.33-16.95 259.33 0 254.83 0 254.83-16.45Q254.83-19.25 253.5-20.95 252.18-22.65 249.83-22.65L249.83-22.65Q247.53-22.65 245.48-21.03 243.43-19.4 241.98-17.2L241.98-17.2 241.98 0ZM276.63 11.6L276.63 11.6Q274.33 11.6 272.15 11.05 269.98 10.5 268.28 9.4L268.28 9.4 269.93 5.5Q271.13 6.45 272.73 7.08 274.33 7.7 276.63 7.7L276.63 7.7Q280.18 7.7 282.2 5.83 284.23 3.95 284.23-0.15L284.23-0.15 284.23-3.35Q283.23-2.15 281.35-1.07 279.48 0 276.88 0L276.88 0Q273.93 0 271.28-1.53 268.63-3.05 266.98-6 265.33-8.95 265.33-13.1L265.33-13.1Q265.33-17 266.95-20.05 268.58-23.1 271.33-24.85 274.08-26.6 277.38-26.6L277.38-26.6Q279.58-26.6 281.38-25.85 283.18-25.1 284.48-24L284.48-24 284.48-26 288.58-26 288.58-0.6Q288.58 3.7 287.08 6.4 285.58 9.1 282.9 10.35 280.23 11.6 276.63 11.6ZM277.88-4L277.88-4Q279.88-4 281.48-4.9 283.08-5.8 284.08-7L284.08-7 284.08-20.6Q282.98-21.4 281.43-22.05 279.88-22.7 277.83-22.7L277.83-22.7Q275.78-22.7 273.98-21.6 272.18-20.5 271.05-18.43 269.93-16.35 269.93-13.35L269.93-13.35Q269.93-10.5 271.05-8.4 272.18-6.3 273.98-5.15 275.78-4 277.88-4Z" opacity="1" transform="matrix(1,0,0,1,0,0)" fill="#ffffff" class="wordmark-text-0" data-fill-palette-color="primary" id="text-0"></path></svg></g></svg></g></svg></g></svg></g><g transform="matrix(1,0,0,1,0,0.1672374456237975)"><svg viewBox="0 0 66.89497824952149 66.89497824952149" height="66.89497824952149" width="66.89497824952149"><g><svg xmlns="http://www.w3.org/2000/svg" xmlns:xlink="http://www.w3.org/1999/xlink" version="1.1" x="0" y="0" viewBox="0 0 512 512" enable-background="new 0 0 512 512" xml:space="preserve" height="66.89497824952149" width="66.89497824952149" class="icon-icon-0" data-fill-palette-color="accent" id="icon-0"><path d="M480 0H32C14.313 0 0 14.328 0 32V480C0 497.688 14.313 512 32 512H480C497.688 512 512 497.687 512 480V32C512 14.328 497.688 0 480 0M320 32L352 96H288L256 32zM192 32L224 96H160L128 32zM32 32H64L96 96H32zM480 480H32V128H480zM480 96H416L384 32H448L480 64zM355.375 289.688C371.125 297.563 371.125 310.438 355.375 318.313L188.625 401.688C172.875 409.563 160 401.594 160 384V224C160 206.406 172.875 198.437 188.625 206.312z" fill="#ffffff" data-fill-palette-color="accent"></path></svg></g></svg></g></svg></g><defs></defs></svg><rect width="395.52" height="53.177758328101255" fill="none" stroke="none" visibility="hidden"></rect></g></svg></g></svg>